# xmcd
#
# Track frame offsets: 
#        150
#        14697
#        30410
#        41504
#        59793
#        79248
#        96943
#        108874
#        124770
#        141642
#
# Disc length: 2074 seconds
#
# Revision: 1
# Processed by: cddbd v1.5.2PL0 Copyright (c) Steve Scherf et al.
# Submitted via: ExactAudioCopy v1.3
#
DISCID=8c08180a
DTITLE=Demian Band - Come To Get It
DYEAR=2017
DGENRE=Blues
TTITLE0=Come To Get It
TTITLE1=Goin' Crazy
TTITLE2=Sometimes
TTITLE3=I Wanna Be With You
TTITLE4=Where Did You Sleep Last Night
TTITLE5=Mad Horse
TTITLE6=Imagine
TTITLE7=Livin' With No Soul
TTITLE8=Bad Boy
TTITLE9=Demian Shuffle
EXTD=
EXTT0=
EXTT1=
EXTT2=
EXTT3=
EXTT4=
EXTT5=
EXTT6=
EXTT7=
EXTT8=
EXTT9=
PLAYORDER=
